<svg xmlns="http://www.w3.org/2000/svg" width="765.034" height="417.441" viewBox="0 0 765.034 417.441">
  <g id="Group_7" data-name="Group 7" transform="translate(0 -0.035)">
    <path id="Path_2" data-name="Path 2" d="M781.928,523.567a125.433,125.433,0,0,1-10.917,21,90.337,90.337,0,0,1-6.613,9.094.465.465,0,0,1-.073.08H25l.1-.08c.665-.519,4.57-3.679,10.644-9.094,4.357-3.878,9.826-8.921,15.966-14.988C101.93,480.18,198.4,363.262,118.055,256.157c-74.688-99.568,5.728-117.636,58.775-119.745a151.551,151.551,0,0,1,59.779,9.773c24.508,9.313,69.3,23.59,127.655,30.136,1.916.213,3.845.426,5.8.619a558.884,558.884,0,0,0,92.989,1.69h0c.911-.053,1.829-.12,2.754-.186a552.564,552.564,0,0,0,90.953-14.07c1.936-.472,3.845-.918,5.748-1.364C662.05,139.977,753.815,218.47,730.87,307.175c-8.482,32.81-6.327,67.782,21.953,96.075C799.125,449.432,793.517,494.915,781.928,523.567Z" transform="translate(-25 -136.26)" fill="#ff6363" opacity="0.1"/>
    <path id="Path_3" data-name="Path 3" d="M781.979,712.8a125.431,125.431,0,0,1-10.917,21,90.331,90.331,0,0,1-6.613,9.094H25.15c.665-.519,4.57-3.679,10.644-9.094,4.357-3.878,9.826-8.921,15.966-14.988l77.921-16.1a15.155,15.155,0,0,1,3.06-.313l83.07-.12h.086l41.146-.053h.093l34.726-.04h46.015l95.41-.133H474.34l16.385-.186h5.415L543.8,701.8h22.539l55.049-.073h16.392l52.142-.073,44.013-.053a15.6,15.6,0,0,1,3.639.432Z" transform="translate(-25.05 -325.496)" fill="#454b69"/>
    <path id="Path_4" data-name="Path 4" d="M35.794,750H771.062a90.352,90.352,0,0,1-6.613,9.094H25.15C25.8,758.542,29.707,755.382,35.794,750Z" transform="translate(-25.05 -341.697)" fill="none"/>
    <path id="Path_5" data-name="Path 5" d="M35.794,750H771.062a90.352,90.352,0,0,1-6.613,9.094H25.15C25.8,758.542,29.707,755.382,35.794,750Z" transform="translate(-25.05 -341.697)" opacity="0.4"/>
    <path id="Path_6" data-name="Path 6" d="M662.493,342.813l-1.477.286-66.765,12.826c-19.392,3.725-39.063,7.471-58.762,6.04-14.27-1.038-27.6-5.269-41.312-8.981-7.75-2.1-15.966-2.94-18.594-11.615-3.626-11.975,2.275-29.7,3.666-41.838,1.331-11.908,2.115-24.115-.253-35.884a63.788,63.788,0,0,0-2.076-7.81c-2.375-7.045-6.107-14.369-4.091-21.521,1.59-5.675,6.44-9.726,10.977-13.478,8.888-7.318,17.962-15.52,21.488-26.49,1.73-5.322,2.056-11.05,3.918-16.332,3.532-10.045,12.407-17.556,22.279-21.534s20.729-4.823,31.38-4.823a212.578,212.578,0,0,1,28.108,1.868c10.177,1.332,20.435,3.521,29.369,8.563S636.814,175.4,638.9,185.468c2.947,14.243-5.236,29.411-.845,43.241,2.209,6.992,7.318,12.64,10.864,19.039a45.35,45.35,0,0,1,3.326,35.258c-4.244,13.152-14.635,26.457-9.314,39.21,3.386,8.109,12.034,12.44,18.062,18.867Q661.794,341.948,662.493,342.813Z" transform="translate(-174.718 -141.403)" fill="#454b69"/>
    <path id="Path_7" data-name="Path 7" d="M662.108,381.755v1.963l-66.765,12.826c-19.392,3.725-39.063,7.471-58.762,6.04-14.27-1.038-27.6-5.269-41.312-8.981-7.75-2.1-15.966-2.94-18.594-11.615-3.626-11.975,2.275-29.7,3.666-41.838,1.331-11.908,21.814-55.382,19.445-67.15l122.406,5.322c.825,6.5,33.176,39.123,31.16,45.357-4.244,13.152-14.635,26.457-9.313,39.21C647.432,371,656.081,375.329,662.108,381.755Z" transform="translate(-175.81 -182.022)" opacity="0.1"/>
    <path id="Path_8" data-name="Path 8" d="M547.983,367.317c.725,4.118,1.111,8.648-.991,12.241-2.8,4.816-8.908,6.353-14.369,7.444l-18.96,3.792a7.358,7.358,0,0,0-3.626,1.437,6.341,6.341,0,0,0-1.69,4.145c-.765,6.865,1.663,13.631,3.878,20.17,4.477,13.245,8.236,26.77,13.9,39.549s13.431,24.98,24.521,33.522,25.765,13.092,39.343,9.753c11.828-2.907,21.527-11.256,29.89-20.111,6.9-7.318,13.352-15.3,16.7-24.794,2.308-6.519,3.06-13.465,3.785-20.343l3.366-31.639c.526-4.949.871-10.518-2.342-14.316a17.051,17.051,0,0,0-5.282-3.812c-7.278-3.865-14.942-7.058-21.714-11.715s-12.779-11.07-14.835-19.026c-1.231-4.777-1.011-9.979-3.107-14.429-2.342-4.989-7.318-8.369-12.64-9.852s-10.937-1.284-16.418-.665-26.61,2.2-28.878,8.382c-1.217,3.326,3.832,10.464,5.029,13.737A95.907,95.907,0,0,1,547.983,367.317Z" transform="translate(-186.752 -200.5)" fill="#efb7b9"/>
    <path id="Path_9" data-name="Path 9" d="M547.983,367.317c.725,4.118,1.111,8.648-.991,12.241-2.8,4.816-8.908,6.353-14.369,7.444l-18.96,3.792a7.358,7.358,0,0,0-3.626,1.437,6.341,6.341,0,0,0-1.69,4.145c-.765,6.865,1.663,13.631,3.878,20.17,4.477,13.245,8.236,26.77,13.9,39.549s13.431,24.98,24.521,33.522,25.765,13.092,39.343,9.753c11.828-2.907,21.527-11.256,29.89-20.111,6.9-7.318,13.352-15.3,16.7-24.794,2.308-6.519,3.06-13.465,3.785-20.343l3.366-31.639c.526-4.949.871-10.518-2.342-14.316a17.051,17.051,0,0,0-5.282-3.812c-7.278-3.865-14.942-7.058-21.714-11.715s-12.779-11.07-14.835-19.026c-1.231-4.777-1.011-9.979-3.107-14.429-2.342-4.989-7.318-8.369-12.64-9.852s-10.937-1.284-16.418-.665-26.61,2.2-28.878,8.382c-1.217,3.326,3.832,10.464,5.029,13.737A95.907,95.907,0,0,1,547.983,367.317Z" transform="translate(-186.752 -200.5)" opacity="0.1"/>
    <path id="Path_10" data-name="Path 10" d="M589.259,462.879l11.116-23.537c5.209-11.03,10.531-22.619,9.979-34.8-.106-2.422-.133-5.448,2-6.546a5.708,5.708,0,0,1,2.92-.372,118.142,118.142,0,0,1,34.267,6.932,13.6,13.6,0,0,1,5.821,3.366c1.5,1.7,2.1,3.991,2.614,6.187a180.639,180.639,0,0,1,3.812,22.532c2,18.773,1,37.713,0,56.546l-2.954,57.5a5.5,5.5,0,0,1-.486,2.368c-.732,1.331-2.382,1.776-3.865,2.029-5.714.978-11.555.778-17.343.559-40.713-1.543-81.639-3.912-122.087,1.024q.273-8.974-.286-17.962c-1.6-25.872-8.309-51.111-14.895-76.178-3.838-14.635-7.557-30.6-1.377-44.392a19.02,19.02,0,0,1,3.852-5.868c2.628-2.574,6.213-3.932,9.766-4.9a62.154,62.154,0,0,1,18.82-2.129l41.944,91.319c1.916,4.178,3.493,8.575,5.4,12.7,1.716-7.125-.346-15.474,1.716-23.2C582.214,478.04,585.713,470.369,589.259,462.879Z" transform="translate(-182.399 -223.723)" fill="#fff"/>
    <path id="Path_11" data-name="Path 11" d="M560.727,524.922c7.5.472,14.8-3.373,19.958-8.808s8.568-12.327,11.449-19.292a190.257,190.257,0,0,0,9.839-30.675c2-8.914,3.413-18.141,2.036-27.175-1.9-12.473-8.961-23.809-10.165-36.369-.206-2.2-.073-4.763,1.69-6.087a7.018,7.018,0,0,1,3.885-1.011c12.547-.745,26.331-.605,36.05,7.358,2.96,2.422,5.362,5.448,8.256,7.943,6.892,5.987,16.631,9.034,21.055,16.984,1.543,2.767,2.282,5.9,3.359,8.881,2.541,7.052,6.939,13.252,11.309,19.352C675.21,473.9,670.34,491.8,666.1,509.681c-2.481,10.491-4.983,21.022-8.881,31.067-2.555,6.586-5.768,13.3-4.983,20.357a46.469,46.469,0,0,0,2.042,8.1,93.137,93.137,0,0,1,3.918,28.958l-189.822.466c9.094-13.039,11.762-29.032,10.837-44.9-.446-7.6-2.162-15.254-5.987-21.833-6.027-10.311-16.631-17.03-27.082-22.785-7.318-3.991-15.174,18.467-23.084,15.893,1.277-9.034,1.863-43.907,1.33-53-.173-2.98-.439-6.04.479-8.888.625-1.949,1.776-3.692,2.555-5.588,3.12-7.591.146-17.3,5.189-23.756,3.486-4.49,9.6-5.768,14.569-8.535,5.1-2.847,9.047-7.318,13.491-11.136a60,60,0,0,1,30.708-13.711,38.677,38.677,0,0,1,5.861,17.3c.339,3.865.093,7.783.632,11.629.738,5.209,2.894,10.1,5.029,14.915,8.894,20.084,17.822,40.228,29.091,59.088,3.187,5.322,6.653,10.644,11.269,14.789S554.527,525.215,560.727,524.922Z" transform="translate(-158.251 -222.933)" fill="#6c63ff"/>
    <path id="Path_12" data-name="Path 12" d="M560.727,524.922c7.5.472,14.8-3.373,19.958-8.808s8.568-12.327,11.449-19.292a190.257,190.257,0,0,0,9.839-30.675c2-8.914,3.413-18.141,2.036-27.175-1.9-12.473-8.961-23.809-10.165-36.369-.206-2.2-.073-4.763,1.69-6.087a7.018,7.018,0,0,1,3.885-1.011c12.547-.745,26.331-.605,36.05,7.358,2.96,2.422,5.362,5.448,8.256,7.943,6.892,5.987,16.631,9.034,21.055,16.984,1.543,2.767,2.282,5.9,3.359,8.881,2.541,7.052,6.939,13.252,11.309,19.352C675.21,473.9,670.34,491.8,666.1,509.681c-2.481,10.491-4.983,21.022-8.881,31.067-2.555,6.586-5.768,13.3-4.983,20.357a46.469,46.469,0,0,0,2.042,8.1,93.137,93.137,0,0,1,3.918,28.958l-189.822.466c9.094-13.039,11.762-29.032,10.837-44.9-.446-7.6-2.162-15.254-5.987-21.833-6.027-10.311-16.631-17.03-27.082-22.785-7.318-3.991-15.174,18.467-23.084,15.893,1.277-9.034,1.863-43.907,1.33-53-.173-2.98-.439-6.04.479-8.888.625-1.949,1.776-3.692,2.555-5.588,3.12-7.591.146-17.3,5.189-23.756,3.486-4.49,9.6-5.768,14.569-8.535,5.1-2.847,9.047-7.318,13.491-11.136a60,60,0,0,1,30.708-13.711,38.677,38.677,0,0,1,5.861,17.3c.339,3.865.093,7.783.632,11.629.738,5.209,2.894,10.1,5.029,14.915,8.894,20.084,17.822,40.228,29.091,59.088,3.187,5.322,6.653,10.644,11.269,14.789S554.527,525.215,560.727,524.922Z" transform="translate(-158.251 -222.933)" fill="#f75e62"/>
    <circle id="Ellipse_1" data-name="Ellipse 1" cx="57.025" cy="57.025" r="57.025" transform="translate(335.413 51.256)" fill="#efb7b9"/>
    <path id="Path_13" data-name="Path 13" d="M547.195,332.83c1.563-14.755-4.57-29.191-11.516-42.3-3.326-6.267-6.892-12.513-8.562-19.4s-1.191-14.682,3.08-20.343c3.632-4.816,9.393-7.418,14.722-10.245,15.041-7.983,28.792-19.718,35.4-35.411-3.739,2.036-2.767,8.109.532,10.79s7.8,3.2,11.855,4.477c14.8,4.657,23.67,19.412,30.788,33.2,1.164,2.249,2.348,4.624,2.335,7.158s-1.171,4.783-2.382,6.939c-3.513,6.253-7.81,12.261-9.407,19.252-1.829,7.983.1,16.378,2.608,24.208,2.661,8.329,6.193,16.724,12.58,22.7s16.292,8.941,24.149,5.083c-7.843-13.485-15.966-28.553-12.906-43.84,1.477-7.318,5.448-13.97,7.138-21.248,3.22-13.884-2.142-28.167-7.4-41.418l-15.727-39.549c-2.4-6.047-5.136-12.5-10.644-15.926-3.725-2.308-8.236-2.907-12.6-3.326-14.05-1.251-28.606-.838-41.685,4.391-23.829,9.52-38.771,32.99-50.626,55.755-3.552,6.819-7.058,14.063-6.912,21.754.08,4.218,1.257,8.322,2.215,12.434,3.9,16.738,4.111,34.081,4.311,51.264.153,13.185-.532,25.612-6.3,37.62,7.9,1.57,19.365,5.808,27.189,2.708C539.631,355.515,545.911,343.095,547.195,332.83Z" transform="translate(-184.68 -148.557)" fill="#454b69"/>
    <g id="Group_3" data-name="Group 3" transform="translate(317.302 55.52)" opacity="0.1">
      <path id="Path_14" data-name="Path 14" d="M508.495,358.724q.04-2.814,0-5.681c-.2-17.183-.412-34.526-4.311-51.264a86.522,86.522,0,0,1-2.036-9.9,25.868,25.868,0,0,0-.18,3.453c.08,4.218,1.257,8.322,2.215,12.434C508.062,324.4,508.3,341.641,508.495,358.724Z" transform="translate(-501.966 -243.862)"/>
      <path id="Path_15" data-name="Path 15" d="M716.955,318.6a40.255,40.255,0,0,0,.865-11.855,36.955,36.955,0,0,1-.865,5.867c-1.69,7.318-5.661,13.91-7.138,21.248a35.257,35.257,0,0,0-.532,9.832,34.88,34.88,0,0,1,.532-3.845C711.293,332.515,715.265,325.9,716.955,318.6Z" transform="translate(-571.322 -248.84)"/>
      <path id="Path_16" data-name="Path 16" d="M637.5,273.319a9.59,9.59,0,0,0,.519-2.934c0-2.535-1.171-4.91-2.335-7.158-7.118-13.784-15.966-28.526-30.788-33.2-4.058-1.277-8.548-1.8-11.855-4.477a8.436,8.436,0,0,1-2.914-5.854c-7.211,13.238-19.6,23.364-33.023,30.475-5.322,2.827-11.09,5.428-14.722,10.245-3.413,4.524-4.4,10.411-3.812,16.106a20.363,20.363,0,0,1,3.812-10.118c3.632-4.816,9.393-7.417,14.722-10.245,13.425-7.112,25.812-17.237,33.023-30.475a8.436,8.436,0,0,0,2.914,5.854c3.326,2.661,7.8,3.2,11.855,4.477,14.8,4.657,23.67,19.412,30.788,33.2a26.209,26.209,0,0,1,1.816,4.1Z" transform="translate(-514.165 -219.7)"/>
      <path id="Path_17" data-name="Path 17" d="M685.248,387.081c-6.386-5.987-9.906-14.369-12.58-22.7a65.711,65.711,0,0,1-3.193-14.443c-.619,6.832,1.078,13.824,3.193,20.43,2.661,8.329,6.193,16.724,12.58,22.7s16.292,8.941,24.149,5.083c-.945-1.617-1.883-3.26-2.814-4.916C699.285,395.29,690.9,392.363,685.248,387.081Z" transform="translate(-557.996 -263.298)"/>
      <path id="Path_18" data-name="Path 18" d="M547.3,403.363c-1.284,10.265-7.564,22.685-17.789,26.743-7.1,2.814-17.2-.419-24.914-2.209a57.63,57.63,0,0,1-2.275,5.488c7.9,1.57,19.365,5.808,27.189,2.708,10.225-4.058,16.5-16.478,17.789-26.743a46.236,46.236,0,0,0,.146-7.73C547.4,402.2,547.344,402.784,547.3,403.363Z" transform="translate(-502.084 -280.598)"/>
    </g>
    <path id="Path_19" data-name="Path 19" d="M667.39,650.485c-10.278-1.63-20.709-4.776-30.9-2.661-5.907,1.224-11.309,4.164-16.219,7.717,2.7,2.162,5.854,4.091,7.571,7.1a27.935,27.935,0,0,1,2.382,6.566,55.878,55.878,0,0,1,2.328,12.214c.166,4.151-.665,8.475-3.14,11.822,12.959,1.277,25.519-1.916,38.159-5.036a10.45,10.45,0,0,0,4.038-1.63c2-1.57,2.581-4.364,2.595-6.912,0-4.55-1.277-8.988-2.575-13.352C670.084,661.076,668.94,655.687,667.39,650.485Z" transform="translate(-224.266 -307.257)" fill="#fff"/>
    <path id="Path_20" data-name="Path 20" d="M756.043,483.3c5.1.665,9.061,4.783,11.974,9.014,8.176,11.775,11.7,26.051,15.627,39.842a530.294,530.294,0,0,0,17.21,50.639,76.215,76.215,0,0,0,5.162,11.11c1.643,2.747,3.639,5.388,4.364,8.508,1.756,7.544-4.464,14.635-10.95,18.84a43.338,43.338,0,0,1-11.209,5.4,66.762,66.762,0,0,1-11.921,2.036l-36.928,3.992c-17,1.849-34.147,3.7-51.151,1.916-1.071-3.725,1.031-6.36.878-10.238-.106-2.774-1.331-5.355-2.422-7.91a50.555,50.555,0,0,1-3.945-14.309,19.4,19.4,0,0,0-.951-5.369,5.032,5.032,0,0,0-3.992-3.326c9.979-.991,17.556-2.874,27.535-3.872,3.705-.373,7.557-.792,10.717-2.761,3.918-2.441,6.114-6.845,7.857-11.116,4.317-10.578,7.1-22.233,4.83-33.435-1.863-9.187-7.058-17.742-7.032-27.116,0-5.582,1.9-10.99,4.151-16.1,2.382-5.4,5.488-10.923,10.717-13.664S750.143,482.5,756.043,483.3Z" transform="translate(-243.521 -252.277)" fill="#6c63ff"/>
    <path id="Path_21" data-name="Path 21" d="M756.043,483.3c5.1.665,9.061,4.783,11.974,9.014,8.176,11.775,11.7,26.051,15.627,39.842a530.294,530.294,0,0,0,17.21,50.639,76.215,76.215,0,0,0,5.162,11.11c1.643,2.747,3.639,5.388,4.364,8.508,1.756,7.544-4.464,14.635-10.95,18.84a43.338,43.338,0,0,1-11.209,5.4,66.762,66.762,0,0,1-11.921,2.036l-36.928,3.992c-17,1.849-34.147,3.7-51.151,1.916-1.071-3.725,1.031-6.36.878-10.238-.106-2.774-1.331-5.355-2.422-7.91a50.555,50.555,0,0,1-3.945-14.309,19.4,19.4,0,0,0-.951-5.369,5.032,5.032,0,0,0-3.992-3.326c9.979-.991,17.556-2.874,27.535-3.872,3.705-.373,7.557-.792,10.717-2.761,3.918-2.441,6.114-6.845,7.857-11.116,4.317-10.578,7.1-22.233,4.83-33.435-1.863-9.187-7.058-17.742-7.032-27.116,0-5.582,1.9-10.99,4.151-16.1,2.382-5.4,5.488-10.923,10.717-13.664S750.143,482.5,756.043,483.3Z" transform="translate(-243.521 -252.277)" fill="#ff6367"/>
    <path id="Path_22" data-name="Path 22" d="M445.284,418.651c2.415-5.734,4.87-11.655,4.936-17.875.073-6.726-2.661-13.112-4.75-19.5a112.751,112.751,0,0,1-5.129-24.075,3.326,3.326,0,0,1,.333-2.308,3.965,3.965,0,0,1,2.555-1.144c4.6-1.051,8.083-4.77,10.957-8.515A93.363,93.363,0,0,0,465.4,326.5c2.2-4.9,5.182-10.883,10.558-10.93a304.925,304.925,0,0,1-8.036,30.1c5.621-1.437,10.963-3.526,16.585-4.963a9.932,9.932,0,0,1,3.406-.452c3.366.353,5.428,4.91,3.473,7.67,2.747,3.22,7.318,4.085,10.91,6.293s6.174,7.677,2.98,10.451a8.908,8.908,0,0,0-1.869,1.61c-1.543,2.382,2.235,5.116,1.923,7.936-.253,2.308-3.213,3.386-5.455,2.774s-3.992-2.288-5.987-3.519-4.6-2-6.539-.718c-.519,6.26-1.078,12.64-3.785,18.341-.991,2.082-2.262,4.031-3.06,6.193a30.523,30.523,0,0,0-1.41,7.271l-2.415,22.08C465.155,428.949,454.824,425.5,445.284,418.651Z" transform="translate(-164.01 -196.272)" fill="#efb7b9"/>
    <path id="Path_23" data-name="Path 23" d="M442.341,486.468l-2.122-14.363a23.353,23.353,0,0,1-.339-3.539c0-3.326,1.464-6.5,2.881-9.526,11.742,5.482,24.435,7.431,37.387,7.438,1.71,0,3.659-.16,4.723-1.5,2.2,2.535,2.268,6.613,1.331,9.832s-2.741,6.12-3.938,9.26c-.605,1.59-1.1,3.326-2.255,4.55-1.8,1.936-4.71,2.268-7.358,2.255a47.033,47.033,0,0,1-8.3-.792C457.256,488.77,449.433,485.2,442.341,486.468Z" transform="translate(-163.881 -244.299)" fill="#fff"/>
    <path id="Path_24" data-name="Path 24" d="M476.85,495.912q-13.671-1.557-27.162-4.391c-4.411-.925-8.861-1.956-13.358-1.776-2.927.12-6.074.705-8.648-.745a41.637,41.637,0,0,1-.339,25.9c-1.776,4.989-4.484,9.639-5.788,14.775-2.714,10.744,1.011,22.459-2.382,33.01a8.356,8.356,0,0,1-2.049,3.672c-1.038.951-2.455,1.444-3.413,2.475-1.41,1.517-1.5,3.8-1.5,5.867l-.06,18.328c-.04,11.668.113,24.042,6.273,33.928,7.025,11.309,21.814,17.17,34.686,13.731a25.785,25.785,0,0,0,9.42-4.61c4.47-3.552,7.318-8.688,10.105-13.691,3.326-5.987,6.653-12.108,7.724-18.847.758-4.77.333-9.639-.213-14.436-3.007-26.61-9.533-52.994-8.129-79.7a24.155,24.155,0,0,1,4.836-13.491Z" transform="translate(-154.596 -254.328)" fill="#ff6367"/>
    <path id="Path_25" data-name="Path 25" d="M526.183,663.9a80.633,80.633,0,0,1-13.884,0c-3.326-.4-6.573-1.217-9.872-1.776a63.272,63.272,0,0,0-50.952,14.156c-2.555,2.182-5.136,5.528-3.725,8.582,1.517,3.286,6.154,3.193,9.726,2.581a29.27,29.27,0,0,0-9.979,7.8c-1,1.217-1.943,2.661-1.75,4.238.406,3.293,4.876,3.892,8.183,3.606-1.078,1.158-.353,3.206,1.018,3.992a6.826,6.826,0,0,0,4.624.339,34.272,34.272,0,0,0,9.819-3.4c-.625,1.63.459,3.539,2,4.351a8.22,8.22,0,0,0,5.129.472c8.129-1.331,14.915-6.985,22.845-9.207,12.68-3.546,25.945,2.109,39.123,2.508a27.3,27.3,0,0,0,12.114-2c4.61-2.1,8.329-6.027,13.2-7.424,5.408-1.543,11.615.233,16.565-2.435,3.6-1.936.353-16.857-.565-19.731-1.683-5.255-3.373-8.741-8.981-9.274C556.625,659.895,540.479,663.075,526.183,663.9Z" transform="translate(-165.837 -311.884)" fill="#efb7b9"/>
    <path id="Path_26" data-name="Path 26" d="M619.88,658.021s21.481,18.181,9.087,38.019l23.949-8.269V670.415c0-.825-9.094-13.219-9.094-13.219l-10.744-1.656Z" transform="translate(-224.136 -310.077)" fill="#fff"/>
    <path id="Path_27" data-name="Path 27" d="M248.421,521.32h8.056a16.631,16.631,0,0,1,16.631,16.631v24.687H231.79V537.951A16.631,16.631,0,0,1,248.421,521.32Z" transform="translate(-77.592 -174.5)" fill="#3f3d56"/>
    <path id="Path_28" data-name="Path 28" d="M248.421,521.32h8.056a16.631,16.631,0,0,1,16.631,16.631v24.687H231.79V537.951A16.631,16.631,0,0,1,248.421,521.32Z" transform="translate(-77.592 -174.5)" opacity="0.1"/>
    <circle id="Ellipse_2" data-name="Ellipse 2" cx="3.306" cy="3.306" r="3.306" transform="translate(169.898 349.295)" fill="#3f3d56"/>
    <circle id="Ellipse_3" data-name="Ellipse 3" cx="3.306" cy="3.306" r="3.306" transform="translate(169.898 345.164)" fill="#3f3d56"/>
    <circle id="Ellipse_4" data-name="Ellipse 4" cx="3.306" cy="3.306" r="3.306" transform="translate(169.898 341.032)" fill="#3f3d56"/>
    <circle id="Ellipse_5" data-name="Ellipse 5" cx="3.306" cy="3.306" r="3.306" transform="translate(169.898 336.901)" fill="#3f3d56"/>
    <circle id="Ellipse_6" data-name="Ellipse 6" cx="3.306" cy="3.306" r="3.306" transform="translate(169.898 332.77)" fill="#3f3d56"/>
    <circle id="Ellipse_7" data-name="Ellipse 7" cx="3.306" cy="3.306" r="3.306" transform="translate(169.898 328.639)" fill="#3f3d56"/>
    <circle id="Ellipse_8" data-name="Ellipse 8" cx="3.306" cy="3.306" r="3.306" transform="translate(169.898 324.501)" fill="#3f3d56"/>
    <circle id="Ellipse_9" data-name="Ellipse 9" cx="3.306" cy="3.306" r="3.306" transform="translate(174.861 326.157)" fill="#3f3d56"/>
    <circle id="Ellipse_10" data-name="Ellipse 10" cx="3.306" cy="3.306" r="3.306" transform="translate(178.167 324.501)" fill="#3f3d56"/>
    <circle id="Ellipse_11" data-name="Ellipse 11" cx="3.306" cy="3.306" r="3.306" transform="translate(181.474 322.851)" fill="#3f3d56"/>
    <circle id="Ellipse_12" data-name="Ellipse 12" cx="3.306" cy="3.306" r="3.306" transform="translate(169.898 320.37)" fill="#3f3d56"/>
    <circle id="Ellipse_13" data-name="Ellipse 13" cx="3.306" cy="3.306" r="3.306" transform="translate(169.898 316.239)" fill="#3f3d56"/>
    <circle id="Ellipse_14" data-name="Ellipse 14" cx="3.306" cy="3.306" r="3.306" transform="translate(169.898 312.107)" fill="#3f3d56"/>
    <circle id="Ellipse_15" data-name="Ellipse 15" cx="3.306" cy="3.306" r="3.306" transform="translate(169.898 307.976)" fill="#3f3d56"/>
    <path id="Path_29" data-name="Path 29" d="M292.024,582.263q-1.237.18-2.475.259a19,19,0,0,0,2.129-2.182,13.97,13.97,0,0,0-2-3.878,6.8,6.8,0,0,1-2.661.838c-.818.12-1.643.206-2.468.266a41.222,41.222,0,0,0,3.16-3.326,14.037,14.037,0,1,0,4.61,10.385,13.757,13.757,0,0,0-.213-2.415Z" transform="translate(-105.088 -281.645)" fill="#ff6363"/>
    <path id="Path_30" data-name="Path 30" d="M315.945,612.005a6.412,6.412,0,0,1-2.781.925c-.818.12-1.643.213-2.468.266a24.224,24.224,0,0,0,2.448-2.541,8.276,8.276,0,1,0,2.8,1.331Z" transform="translate(-117.987 -294.961)" fill="#ff6363"/>
    <circle id="Ellipse_16" data-name="Ellipse 16" cx="3.306" cy="3.306" r="3.306" transform="translate(164.942 326.157)" fill="#3f3d56"/>
    <circle id="Ellipse_17" data-name="Ellipse 17" cx="3.306" cy="3.306" r="3.306" transform="translate(161.636 324.501)" fill="#3f3d56"/>
    <circle id="Ellipse_18" data-name="Ellipse 18" cx="3.306" cy="3.306" r="3.306" transform="translate(158.33 322.851)" fill="#3f3d56"/>
    <path id="Path_31" data-name="Path 31" d="M246.455,612.005a6.413,6.413,0,0,0,2.781.925c.818.12,1.643.213,2.468.266a23.559,23.559,0,0,1-2.448-2.541,8.276,8.276,0,1,1-2.8,1.331Z" transform="translate(-97.998 -294.961)" fill="#ff6363"/>
    <path id="Path_32" data-name="Path 32" d="M248.411,525h8.056A16.631,16.631,0,0,1,273.1,541.631V563.5a2.821,2.821,0,0,1-2.821,2.821h-35.7a2.821,2.821,0,0,1-2.821-2.821V541.631A16.631,16.631,0,0,1,248.411,525Z" transform="translate(-77.582 -175.732)" fill="#3f3d56"/>
    <g id="Group_4" data-name="Group 4" transform="translate(159.354 289.146)" opacity="0.1">
      <path id="Path_33" data-name="Path 33" d="M305.8,589.49a12.529,12.529,0,0,1-1.064,1.011,10.812,10.812,0,0,0,1.131-.1C305.858,590.1,305.838,589.789,305.8,589.49Z" transform="translate(-277.997 -577.113)"/>
      <path id="Path_34" data-name="Path 34" d="M297.28,582.164c.832-.053,1.65-.14,2.475-.259a7.983,7.983,0,0,0,2.149-.585,14.587,14.587,0,0,0-1.158-1.909,5,5,0,0,1-1.331.565,19.147,19.147,0,0,1-2.135,2.189Z" transform="translate(-275.5 -573.739)"/>
      <path id="Path_35" data-name="Path 35" d="M266,586.409a14.023,14.023,0,0,1,21.621-11.815l.213-.226a14.037,14.037,0,1,0-18.508,21.109A13.97,13.97,0,0,1,266,586.409Z" transform="translate(-264.54 -570.885)"/>
    </g>
    <g id="Group_5" data-name="Group 5" transform="translate(184.78 315.414)" opacity="0.1">
      <path id="Path_36" data-name="Path 36" d="M314.68,615.651c.825-.053,1.65-.14,2.468-.26a6.42,6.42,0,0,0,2.781-.931,8.269,8.269,0,0,1,3.326,5.854,7.579,7.579,0,0,0,.047-.871,8.236,8.236,0,0,0-3.326-6.652,6.413,6.413,0,0,1-2.781.925l-.665.087A16.876,16.876,0,0,1,314.68,615.651Z" transform="translate(-306.75 -611.18)"/>
      <path id="Path_37" data-name="Path 37" d="M311.022,612.02a6.78,6.78,0,0,1,.825.06c.432-.459.858-.951,1.291-1.43a8.249,8.249,0,0,0-10.378,7.983,5.664,5.664,0,0,0,.04.825A8.262,8.262,0,0,1,311.022,612.02Z" transform="translate(-302.76 -610.37)"/>
    </g>
    <g id="Group_6" data-name="Group 6" transform="translate(145.084 315.414)" opacity="0.1">
      <path id="Path_38" data-name="Path 38" d="M251.712,615.651c-.825-.053-1.65-.14-2.468-.26a6.419,6.419,0,0,1-2.781-.931,8.269,8.269,0,0,0-3.326,5.854,7.571,7.571,0,0,1-.047-.871,8.236,8.236,0,0,1,3.326-6.652,6.413,6.413,0,0,0,2.781.925l.665.087A15.747,15.747,0,0,0,251.712,615.651Z" transform="translate(-243.09 -611.18)"/>
      <path id="Path_39" data-name="Path 39" d="M254.486,612.02a6.992,6.992,0,0,0-.832.06c-.426-.459-.852-.951-1.284-1.43a8.249,8.249,0,0,1,10.378,7.983,5.664,5.664,0,0,1-.04.825,8.262,8.262,0,0,0-8.223-7.437Z" transform="translate(-246.196 -610.37)"/>
    </g>
    <path id="Path_40" data-name="Path 40" d="M187.756,717.132H122.761A2.761,2.761,0,0,1,120,714.372V683.61a2.761,2.761,0,0,1,3.945-2.495c18.674,8.861,38.791,11.9,62.534.14a2.767,2.767,0,0,1,3.992,2.468v30.6A2.761,2.761,0,0,1,187.756,717.132Z" transform="translate(-56.801 -318.549)" fill="#6c63ff"/>
    <path id="Path_41" data-name="Path 41" d="M187.756,717.132H122.761A2.761,2.761,0,0,1,120,714.372V683.61a2.761,2.761,0,0,1,3.945-2.495c18.674,8.861,38.791,11.9,62.534.14a2.767,2.767,0,0,1,3.992,2.468v30.6A2.761,2.761,0,0,1,187.756,717.132Z" transform="translate(-56.801 -318.549)" fill="#e55959"/>
    <ellipse id="Ellipse_19" data-name="Ellipse 19" cx="3.845" cy="5.036" rx="3.845" ry="5.036" transform="translate(94.16 365.128)" fill="#3f3d56"/>
    <ellipse id="Ellipse_20" data-name="Ellipse 20" cx="3.845" cy="5.036" rx="3.845" ry="5.036" transform="translate(94.16 358.974)" fill="#3f3d56"/>
    <ellipse id="Ellipse_21" data-name="Ellipse 21" cx="3.845" cy="5.036" rx="3.845" ry="5.036" transform="translate(94.16 352.814)" fill="#3f3d56"/>
    <ellipse id="Ellipse_22" data-name="Ellipse 22" cx="3.845" cy="5.036" rx="3.845" ry="5.036" transform="translate(94.16 346.66)" fill="#3f3d56"/>
    <ellipse id="Ellipse_23" data-name="Ellipse 23" cx="3.845" cy="5.036" rx="3.845" ry="5.036" transform="translate(94.16 340.5)" fill="#3f3d56"/>
    <ellipse id="Ellipse_24" data-name="Ellipse 24" cx="3.845" cy="5.036" rx="3.845" ry="5.036" transform="translate(94.16 334.34)" fill="#3f3d56"/>
    <ellipse id="Ellipse_25" data-name="Ellipse 25" cx="3.845" cy="5.036" rx="3.845" ry="5.036" transform="translate(94.16 328.186)" fill="#3f3d56"/>
    <path id="Path_42" data-name="Path 42" d="M177.434,558.753a19.576,19.576,0,0,0,1.43-2.109l-10.112-1.663,10.937.08a18.434,18.434,0,0,0,.353-14.635l-14.669,7.61,13.531-9.979a18.434,18.434,0,1,0-30.449,20.623,18.026,18.026,0,0,0-2.1,3.359l13.119,6.892-13.97-4.723a18.454,18.454,0,0,0,2.974,17.3,18.434,18.434,0,1,0,28.978,0,18.434,18.434,0,0,0,0-22.791Z" transform="translate(-65.006 -267.668)" fill="#ff6363"/>
    <path id="Path_43" data-name="Path 43" d="M144.49,590.793a18.354,18.354,0,0,0,3.945,11.4,18.434,18.434,0,1,0,28.978,0C179.881,599.056,144.49,588.724,144.49,590.793Z" transform="translate(-64.999 -288.312)" opacity="0.1"/>
    <path id="Path_44" data-name="Path 44" d="M187.756,718.762H122.761A2.761,2.761,0,0,1,120,716V683.61a2.761,2.761,0,0,1,3.945-2.495c18.674,8.861,33.482,19.193,62.534.14,1.723-1.131,3.992.412,3.992,2.468v32.265A2.761,2.761,0,0,1,187.756,718.762Z" transform="translate(-56.801 -318.549)" fill="#ff6363"/>
    <path id="Path_45" data-name="Path 45" d="M847.576,570.922l-95.889,12.686-4.8.632L700.01,559.2v-5.861l146.5-15.979Z" transform="translate(-234.328 -179.869)" fill="#9c9ca1"/>
    <path id="Path_46" data-name="Path 46" d="M740.85,568.027,844.729,555.78l-1.064,19.179-80.914,5.934Z" transform="translate(-247.999 -186.035)" fill="#939498"/>
    <path id="Path_47" data-name="Path 47" d="M776.683,721.609V727.9l-4.8.665L725,703.5V697.64l44.751,23.949S775.619,722.141,776.683,721.609Z" transform="translate(-259.325 -324.17)" opacity="0.4"/>
    <path id="Path_48" data-name="Path 48" d="M819.454,577.558l-21.527,99.821a6.373,6.373,0,0,0,7.065,7.67l136.2-18.028a6.373,6.373,0,0,0,5.216-4.311L975.788,574.1a6.386,6.386,0,0,0-6.36-8.382l-144.04,6.839A6.387,6.387,0,0,0,819.454,577.558Z" transform="translate(-283.688 -280.006)" fill="#3f3d56"/>
    <ellipse id="Ellipse_26" data-name="Ellipse 26" cx="5.788" cy="3.719" rx="5.788" ry="3.719" transform="translate(602.602 339.358) rotate(-84)" fill="#fff"/>
  </g>
</svg>
